<svg xmlns="http://www.w3.org/2000/svg" width="24px" height="24px" viewBox="0 0 24 24">
  <g fill="none" fill-rule="evenodd">
    <path d="M0 0h24v24H0z"></path>
    <path d="M12 1L3 5v6c0 5.55 3.84 10.74 9 12 5.16-1.26 9-6.45 9-12V5l-9-4z" fill="#757575" fill-rule="nonzero"></path>
    <path d="M4.5 4.5h15v15h-15z"></path>
    <path d="M12 8.278c1.227 0 2.227.992 2.227 2.21 0 1.217-1 2.208-2.227 2.208a2.222 2.222 0 0 1-2.227-2.209c0-1.217 1-2.21 2.227-2.21zm0 9.555a5.442 5.442 0 0 1-4.444-2.288c.108-1.423 2.989-2.13 4.444-2.13s4.336.707 4.444 2.13A5.442 5.442 0 0 1 12 17.833z" fill="#FFF" fill-rule="nonzero"></path>
    <path d="M12 6.167A5.832 5.832 0 0 0 6.167 12 5.832 5.832 0 0 0 12 17.833 5.832 5.832 0 0 0 17.833 12 5.832 5.832 0 0 0 12 6.167z" stroke="#FFF"></path>
  </g>
</svg>
